<?xml version="1.0" encoding="utf-8"?>
<!-- Generator: Adobe Illustrator 19.0.0, SVG Export Plug-In . SVG Version: 6.00 Build 0)  -->
<svg version="1.1" id="Layer_1" xmlns="http://www.w3.org/2000/svg" xmlns:xlink="http://www.w3.org/1999/xlink" x="0px" y="0px"
	 viewBox="23 175.8 358.5 243.5" style="enable-background:new 23 175.8 358.5 243.5;" xml:space="preserve">
<style type="text/css">
	.st0{fill:#98C33D;}
	.st1{fill:url(#Caminho_15_1_);}
	.st2{fill:url(#Caminho_16_1_);}
</style>
<path id="Caminho_14" class="st0" d="M249.8,364.6H123.9v-16.7c0-14.1,11.4-25.5,25.5-25.5l0,0h125.9v16.7
	C275.4,353.2,263.9,364.6,249.8,364.6L249.8,364.6z"/>
<linearGradient id="Caminho_15_1_" gradientUnits="userSpaceOnUse" x1="-761.7272" y1="34.0564" x2="-758.3588" y2="39.7716" gradientTransform="matrix(11.007 0 0 39.425 8566.5938 -1104.4581)">
	<stop  offset="0" style="stop-color:#98C33D"/>
	<stop  offset="0.228" style="stop-color:#93BD3E"/>
	<stop  offset="0.533" style="stop-color:#86AC3F"/>
	<stop  offset="0.88" style="stop-color:#70913C"/>
	<stop  offset="1" style="stop-color:#678639"/>
</linearGradient>
<path id="Caminho_15" class="st1" d="M178.5,419.3V293.4c0-14.1,11.4-25.5,25.5-25.5l0,0h16.7v125.9c0,14.1-11.4,25.5-25.5,25.5l0,0
	H178.5z"/>
<linearGradient id="Caminho_16_1_" gradientUnits="userSpaceOnUse" x1="-795.1252" y1="31.1718" x2="-791.286" y2="31.1718" gradientTransform="matrix(93.3135 0 0 60.036 74219.1641 -1580.0503)">
	<stop  offset="0" style="stop-color:#98C33D"/>
	<stop  offset="0.704" style="stop-color:#2EADDF"/>
	<stop  offset="0.957" style="stop-color:#2EADDF"/>
	<stop  offset="1" style="stop-color:#2EADDF"/>
</linearGradient>
<path id="Caminho_16" class="st2" d="M376.4,257.1c-5.8-16.3-16-30.8-29.4-41.9c-3.3-2.8-6.9-5.3-10.5-7.6l-5.7-3.3
	c-2-1-4.1-2.1-6.2-3l-1.5-0.7l-1.3-0.5l-2.8-1l-1.3-0.5l-0.7-0.3l-0.6-0.2l-0.2-0.1l-0.4-0.1l-3.1-0.9c-2.1-0.6-4.2-1.2-6.3-1.7
	c-2.2-0.4-4.2-0.9-6.4-1.2c-17.2-2.5-34.8-0.9-51.3,4.7c-8.2,2.7-16.1,6.3-23.5,10.8c-4.1,2.4-8,5.1-11.7,8
	c-10-10.9-21.7-20-34.7-27.1c-8.2-4.5-17-8-26-10.5c-2.3-0.6-4.5-1.2-6.8-1.7c-2.4-0.5-4.9-0.8-7.2-1.2l-6.7-0.7
	c-2.4-0.1-4.8-0.3-7.1-0.3c-9.5-0.1-18.9,1.1-28.1,3.5c-9.2,2.4-18,5.9-26.2,10.6c-8.3,4.7-15.8,10.6-22.3,17.5
	c-1.7,1.8-3.3,3.7-5,5.7l-1.9,2.6l-0.9,1.3l-0.5,0.6l-0.4,0.6l-0.2,0.4l-3.8,6l-3.2,6.3c-7.6,17-10.6,35.7-8.7,54.3
	c0.9,9,2.8,17.9,5.6,26.6c1.3,4.2,3.1,8.6,4.9,12.7l2.9,6l3.2,5.9c4.5,7.6,9.7,14.8,15.4,21.6c5.6,6.7,11.7,12.9,18.3,18.7
	c13,11.4,27.2,21.3,42.3,29.7c-13.5-10.3-26.2-21.8-37.7-34.3c-5.6-6.2-10.9-12.8-15.7-19.6c-4.7-6.8-8.9-13.9-12.5-21.4l-2.6-5.6
	l-2.3-5.8c-1.3-3.8-2.5-7.5-3.5-11.5c-1.9-7.8-3-15.8-3.2-23.9c-0.3-7.9,0.4-15.8,2-23.6c1.5-7.6,4.1-15,7.8-21.8l2.9-5l3.2-4.7
	l3.8-4.7l3.7-3.8c5.5-5.3,11.7-9.8,18.4-13.3c13.6-7.2,28.8-10.7,44.1-10.2l5.7,0.3l6,0.8c1.8,0.4,3.5,0.6,5.4,1
	c1.9,0.5,3.7,0.8,5.6,1.4c7.4,2.2,14.5,5.2,21.3,8.9c13.7,7.6,25.6,17.9,35.2,30.2l7.6,9.6l8.9-8.4c10.2-9.7,22.4-17.1,35.7-21.7
	c13.2-4.7,27.4-6.3,41.3-4.7c1.7,0.2,3.5,0.4,5.2,0.8c1.7,0.3,3.4,0.7,5.1,1.2l2.5,0.6l0.3,0.1h0.2l0.4,0.2l1.3,0.5l2.8,0.9l1.3,0.5
	l1.2,0.5l4.4,2l4.5,2.5c3,1.8,5.9,3.7,8.7,5.9c5.6,4.3,10.6,9.3,15,14.8s8,11.7,10.6,18.2c2.7,6.5,4.4,13.3,5.2,20.3l0.2,5.3v1.2
	l-0.4,1.4l-0.1,2.9c-0.2,3.5-0.7,6.9-1.4,10.3c-1.5,7.1-3.9,14.1-7,20.7c-3.3,6.7-7.2,13.1-11.6,19.1c-9.3,12.1-20.2,23-32.4,32.3
	c-12.2,9.6-25.2,18.3-38.2,27.1c14.3-6.6,28.2-14.1,41.7-22.2c13.7-8.3,26.2-18.6,37.1-30.4c5.5-6.1,10.3-12.8,14.4-19.9
	c4.2-7.3,7.5-15,9.8-23c1.2-4.2,2.1-8.4,2.7-12.7l0.3-2.9l0.1-1.4v-1.9l0.1-6.5C381.1,274.2,379.4,265.5,376.4,257.1z"/>
</svg>
