<?xml version="1.0" encoding="utf-8"?>
<!-- Generator: Adobe Illustrator 19.0.0, SVG Export Plug-In . SVG Version: 6.00 Build 0)  -->
<svg version="1.1" id="Layer_1" xmlns="http://www.w3.org/2000/svg" xmlns:xlink="http://www.w3.org/1999/xlink" x="0px" y="0px"
	 viewBox="-183 32.1 474.5 532.2" style="enable-background:new -183 32.1 474.5 532.2;" xml:space="preserve">
<style type="text/css">
	.st0{fill:url(#XMLID_2_);}
	.st1{fill:#98C33E;}
	.st2{fill:#31ADE0;}
</style>
<g id="XMLID_863_">
	<linearGradient id="XMLID_2_" gradientUnits="userSpaceOnUse" x1="54.25" y1="32.08" x2="54.25" y2="564.2697">
		<stop  offset="0" style="stop-color:#31ADE0"/>
		<stop  offset="0.1185" style="stop-color:#37AED7"/>
		<stop  offset="0.3117" style="stop-color:#46B2BF"/>
		<stop  offset="0.5558" style="stop-color:#5FB797"/>
		<stop  offset="0.8382" style="stop-color:#82BE60"/>
		<stop  offset="1" style="stop-color:#98C33E"/>
	</linearGradient>
	<path id="XMLID_511_" class="st0" d="M279.5,564.3H-171c-6.6,0-12-5.4-12-12V44.1c0-6.6,5.4-12,12-12h450.5c6.6,0,12,5.4,12,12
		v508.2C291.5,558.9,286.1,564.3,279.5,564.3z"/>
	<ellipse id="XMLID_510_" class="st1" cx="52.5" cy="233.9" rx="109.4" ry="110.6"/>
	<path id="XMLID_509_" class="st1" d="M258.1,564c0-151.9-81.9-275-203.3-275s-206.1,123.1-206.1,275c0,0-13.9,0-13.9,0l440,0.2
		C274.7,564.2,258.1,564.1,258.1,564z"/>
	<g id="XMLID_101_">
		<path id="XMLID_719_" class="st2" d="M-43.3,413.1c10.4,0,18.8,8.4,18.7,18.9c0,10.3-8.4,18.6-18.7,18.6
			c-10.5,0-18.9-8.3-18.9-18.7C-62.1,421.5-53.7,413.1-43.3,413.1z"/>
		<g id="XMLID_84_">
			<path id="XMLID_114_" class="st2" d="M-49.5,318.8c-0.2,12.8,0,61.7-0.1,74.6c0,0.5,0,1,0,1.4c-18.8,3.3-33.1,20.2-31.2,40.6
				c1.6,17.7,16,32.7,35.1,33.9c18.2,1.2,34.4-10.9,38.8-28.2c2.3-9,1.4-17.8-2.8-26.1c-5.7-11.2-15-17.7-27.3-20.2
				c0-0.3,0-0.6,0-0.8c0-13-0.1-62,0.1-75c0.1-4,0.5-8,1.4-11.9c0.3-1.3,0.8-2.6,1.5-3.9c-3.3-4.2-6.2-8.7-8.8-13.3
				C-47.1,298.5-49.3,308.2-49.5,318.8z M-18.2,432c-0.1,13.7-11.5,25-25.3,24.9c-13.8-0.1-24.9-11.4-24.8-25.3
				c0.1-13.7,11.4-24.8,25.1-24.8C-29.4,406.8-18.2,418.1-18.2,432z"/>
			<path id="XMLID_115_" class="st2" d="M219.9,456.5c-3.7-21.4-12.1-40.9-24.9-58.5c-0.4-0.6-0.7-1.5-0.7-2.2
				c0-2.6-0.8-4.9-2.6-6.8c-2.1-2.2-4.2-4.5-6.5-6.6c-7.5-7.1-15.9-12.7-25.8-15.8c-2.8-0.9-5.7-1.4-8.6-2.2c0-0.4,0-0.9,0-1.3
				c0-14.4,0-28.8,0-43.2c0-9.4-1.6-18.4-5.4-26.9c-2.7,4.4-5.7,8.7-9,12.7c0.9,3.9,1.5,7.9,1.6,12.1c0.3,15.3,0.2,30.6,0.3,46
				c0,0.3,0,0.5-0.1,0.9c-4.8,0.7-9.3,1.9-13.7,3.8c-11.1,4.8-20.1,12.3-27.8,21.4c-1.1,1.3-1.9,3.3-2,5c-0.1,2-0.9,3.4-1.9,5
				c-12.4,17.6-20.4,37-23.9,58.3c-1.5,9.6-1.6,19.2,0.2,28.8c2.1,11.9,8.6,20.3,20.1,24.2c6.1,2.1,12.5,3.6,18.7,5.3
				c1.2,0.3,2.1,0.7,2.8,1.8c3.1,4.6,9.2,5.6,13.7,2.5c4.5-3.1,5.7-9.2,2.7-13.7c-3-4.6-8.8-5.8-13.5-2.8c-0.4,0.2-1,0.4-1.4,0.3
				c-6.2-1.6-12.4-3.1-18.5-5.1c-7-2.3-11.2-7.4-12.5-14.7c-1.1-6.1-1.2-12.3-0.7-18.5c0.8-10.3,3.4-20.2,7.1-29.9
				c4.1-10.7,9.3-20.9,16.1-30.2c0.3-0.5,0.9-1,1.4-1.1c2.7-0.5,4.8-1.8,6.5-3.9c3.8-4.4,8-8.3,12.8-11.5c12.6-8.5,25.4-9.1,38.4-1
				c5.4,3.3,10,7.5,14.2,12.3c1.7,1.9,3.5,3.4,6.1,3.8c0.9,0.1,1.6,0.6,2.1,1.3c9.4,13.1,16,27.4,20.1,42.9
				c3,11.3,4.1,22.8,2.5,34.5c-1.1,7.6-4.9,13.3-12.3,15.7c-6.2,2-12.6,3.5-18.9,5.2c-0.4,0.1-0.9-0.2-1.4-0.4
				c-1.5-0.5-3-1.4-4.5-1.5c-5-0.4-9.2,2.9-10.4,7.7c-1.1,4.6,1.3,9.4,5.8,11.3c4.5,1.9,9.5,0.4,12.3-3.7c0.4-0.6,1.1-1.1,1.8-1.3
				c6.1-1.7,12.2-3.1,18.2-5.1c11.8-3.8,19-11.8,21.4-24.1C221.8,477.1,221.7,466.8,219.9,456.5z"/>
		</g>
	</g>
</g>
</svg>
