<?xml version="1.0" encoding="utf-8"?>
<!-- Generator: Adobe Illustrator 19.0.0, SVG Export Plug-In . SVG Version: 6.00 Build 0)  -->
<svg version="1.1" id="Layer_1" xmlns="http://www.w3.org/2000/svg" xmlns:xlink="http://www.w3.org/1999/xlink" x="0px" y="0px"
	 viewBox="-402 134.8 474.5 532.2" style="enable-background:new -402 134.8 474.5 532.2;" xml:space="preserve">
<style type="text/css">
	.st0{fill:#FFFFFF;}
	.st1{fill:#DBDBDB;}
	.st2{fill:#9B9B9B;}
</style>
<path id="XMLID_22_" class="st0" d="M60.5,667H-390c-6.6,0-12-5.4-12-12V146.8c0-6.6,5.4-12,12-12H60.5c6.6,0,12,5.4,12,12V655
	C72.5,661.6,67.1,667,60.5,667z"/>
<g>
	<ellipse id="XMLID_471_" class="st1" cx="-166.5" cy="336.7" rx="109.4" ry="110.6"/>
	<path id="XMLID_480_" class="st1" d="M39.1,666.8c0-151.9-81.9-275-203.3-275s-206.2,123.1-206.2,275h-13.9l440,0.2
		C55.7,666.9,39.1,666.8,39.1,666.8z"/>
</g>
<polygon class="st2" points="-175,447.3 -183.5,465.8 -175,474.8 -172.6,641.8 -164.8,651.8 -156.9,641.8 -154.5,474.8 -146,465.8 
	-154.5,447.3 "/>
</svg>
