<?xml version="1.0" encoding="utf-8"?>
<!-- Generator: Adobe Illustrator 19.0.0, SVG Export Plug-In . SVG Version: 6.00 Build 0)  -->
<svg version="1.1" id="Layer_1" xmlns="http://www.w3.org/2000/svg" xmlns:xlink="http://www.w3.org/1999/xlink" x="0px" y="0px"
	 viewBox="-402 134.8 474.5 532.2" style="enable-background:new -402 134.8 474.5 532.2;" xml:space="preserve">
<style type="text/css">
	.st0{fill:#FFFFFF;}
	.st1{fill:#DBDBDB;}
	.st2{fill:#9B9B9B;}
</style>
<path id="XMLID_22_" class="st0" d="M60.5,667H-390c-6.6,0-12-5.4-12-12V146.8c0-6.6,5.4-12,12-12H60.5c6.6,0,12,5.4,12,12V655
	C72.5,661.6,67.1,667,60.5,667z"/>
<g>
	<ellipse id="XMLID_471_" class="st1" cx="-166.5" cy="336.7" rx="109.4" ry="110.6"/>
	<path id="XMLID_480_" class="st1" d="M39.1,666.8c0-151.9-81.9-275-203.3-275s-206.1,123.1-206.1,275h-13.9l440,0.2
		C55.7,666.9,39.1,666.8,39.1,666.8z"/>
</g>
<g>
	<path class="st2" d="M-38.5,514.8c0-8.7-7.1-16.3-15.8-17c-7.3-0.6-14.6-0.1-21.9-0.2c-1.1,0-1.4,0.5-1.3,1.5c0.1,1.4,0,2.8,0,4.2
		c-0.1,4.3-3.2,7.5-7.5,7.5c-13.5,0.1-27,0-40.4,0c-4.4,0-7.6-3.3-7.6-7.7c0-1.2-0.1-2.5,0-3.7c0.1-1.4-0.5-1.8-1.8-1.8
		c-6.2,0.1-12.4,0-18.6,0.1c-1.5,0-3.1,0.1-4.6,0.4c-8.2,1.7-14,8.8-14.1,17.2c-0.1,22.5,0,45,0,67.5c0,0.9,0,1.7,0.2,2.6
		c1.8,9.2,8.9,15.1,18.3,15.1c16.1,0,32.1,0,48.2,0l0,0c16.2,0,32.5,0,48.7,0c9.9,0,18.1-7.6,18.1-17.2
		C-38.4,560.4-38.4,537.6-38.5,514.8z M-122.6,570.4c-11.4,0-22.8-0.1-34.2,0c-1.4,0-1.7-0.4-1.7-1.7c0.1-6.4,0-12.8,0-19.2
		s0-12.8,0-19.2c0-1.2,0.2-1.7,1.5-1.6c11.4,0.1,22.9,0.1,34.3,0c1.3,0,1.6,0.4,1.6,1.6c0,12.9-0.1,25.7,0,38.6
		C-120.9,570.1-121.3,570.4-122.6,570.4z M-57.4,569c-7.3,0-14.7,0-22,0s-14.7,0-22,0c-2.4,0-3.4-1.2-3.2-3.6
		c0.2-1.6,1.1-2.4,3.1-2.5c4.7,0,9.4,0,14.1,0c9.9,0,19.8,0,29.7,0c2.5,0,3.4,0.8,3.4,3C-54.3,568.2-55.1,569-57.4,569z M-57.5,552
		c-7.3,0-14.7,0-22,0s-14.6,0-21.9,0c-2.4,0-3.4-1.1-3.3-3.4c0.1-1.8,1.1-2.8,2.9-2.8c14.8,0,29.6,0,44.5,0c2.1,0,3,1.1,3,3.1
		C-54.3,551-55.3,552-57.5,552z M-54.3,532.5c-0.2,1.2-0.8,2-2.1,2.3c-0.5,0.1-1,0.1-1.5,0.1c-14.4,0-28.8,0-43.2,0
		c-2.5,0-3.6-0.9-3.6-2.9c-0.1-2.3,0.8-3.3,3.1-3.3c4.3,0,8.7,0,13,0c3,0,6,0,9,0c7.3,0,14.6,0,21.9,0
		C-55.1,528.7-54,530-54.3,532.5z"/>
	<path class="st2" d="M-81.9,493.9c0-1.2-0.3-1.6-1.5-1.6c-4,0.1-8,0-11.9,0c-1,0-1.7-0.3-2.1-1.3c-2.5-5.6-11.8-6.8-15.4-0.2
		c-0.6,1.2-1.4,1.5-2.6,1.4c-3.9-0.1-7.7,0-11.6-0.1c-1.3,0-1.6,0.4-1.6,1.6c0.1,2.7,0,5.4,0,8.1c0,3.8,1.8,5.4,5.6,5.4
		c5.9,0,11.8,0,17.6,0c6.1,0,12.1,0,18.2,0c3.4,0,5.2-1.9,5.2-5.2C-81.9,499.4-81.9,496.7-81.9,493.9z M-105.3,499.8
		c-2.6,0-4.6-2.2-4.6-4.7c0.1-2.6,2.1-4.6,4.8-4.5c2.6,0,4.6,2,4.5,4.7C-100.6,497.9-102.6,499.9-105.3,499.8z"/>
</g>
</svg>
